<?xml version="1.0" encoding="utf-8"?>
<!-- Svg Vector Icons : http://www.onlinewebfonts.com/icon -->
<!DOCTYPE svg PUBLIC "-//W3C//DTD SVG 1.1//EN" "http://www.w3.org/Graphics/SVG/1.1/DTD/svg11.dtd">
<svg version="1.1" xmlns="http://www.w3.org/2000/svg" xmlns:xlink="http://www.w3.org/1999/xlink" x="0px" y="0px" viewBox="0 0 1000 1000" enable-background="new 0 0 1000 1000" xml:space="preserve">
<metadata> Svg Vector Icons : http://www.onlinewebfonts.com/icon </metadata>
<g><path d="M270.5,241.7h245.1c12.7,0,23-10.3,23-23c0-12.7-10.3-23-23-23H270.5c-12.7,0-23,10.3-23,23C247.5,231.3,257.8,241.7,270.5,241.7L270.5,241.7z M270.5,355h334c12.7,0,23-10.3,23-23c0-12.7-10.3-23-23-23h-334c-12.7,0-23,10.3-23,23C247.5,344.8,257.8,355,270.5,355L270.5,355z M177.2,78.9h520.4v360.2c9,2.6,16.9,6.5,23.2,10.1c10.8-6,25.6-13.1,43.9-13.1c0.6,0,1.2,0.1,1.9,0.1V78.9c0-38.1-30.9-68.9-68.9-68.9H177.2c-38.1,0-68.9,30.9-68.9,68.9v768.2c0,38.1,30.9,68.9,68.9,68.9h417.5v-68.9H177.2V78.9L177.2,78.9z M872.7,609.7c-5.1-4.6-11-9.8-12.2-13.7c-1.4-4.3,0.2-11.8,1.8-19.2c2.5-11.5,5.3-24.4-1.9-34.1c-7.1-9.8-20.4-11.2-32.1-12.3c-7-0.7-15-1.5-18.5-4.1c-3.5-2.5-6.6-9.8-9.5-16.2c-4.8-10.9-10.2-23.1-21.9-27c-2.1-0.7-4.4-1.1-6.8-1.1c-9,0-17.5,5-25.8,9.8c-6.6,3.8-13.3,7.8-18,7.8c-4.7,0-11.5-3.9-18-7.8c-8.3-4.8-16.9-9.8-25.8-9.8c-2.3,0-4.6,0.4-6.8,1.1c-11.7,3.8-17.1,16.1-21.9,27c-2.8,6.4-6,13.7-9.5,16.2c-3.6,2.6-11.5,3.4-18.5,4.1c-11.7,1.1-24.9,2.5-32.1,12.2c-7,9.8-4.3,22.7-1.8,34.2c1.6,7.3,3.2,14.8,1.8,19.2c-1.3,3.9-7.1,9.1-12.2,13.7c-8.9,8-19,16.9-19,29.4s10.1,21.5,19,29.4c5.1,4.6,11,9.8,12.2,13.7c1.4,4.3-0.2,11.8-1.8,19.2c-2.5,11.5-5.3,24.5,1.8,34.2c7.1,9.8,20.4,11.2,32.1,12.3c7,0.7,15,1.5,18.5,4.1c3.5,2.6,6.6,9.8,9.5,16.2c4.8,10.8,10.2,23.1,21.9,27c2.1,0.7,4.4,1.1,6.8,1.1c9,0,17.5-5,25.8-9.8c6.6-3.8,13.3-7.8,18-7.8c4.7,0,11.5,3.9,18,7.8c8.3,4.8,16.9,9.8,25.8,9.8c2.3,0,4.6-0.4,6.8-1.1c11.7-3.8,17.1-16.1,21.9-27c2.8-6.4,6-13.7,9.5-16.2c3.6-2.6,11.5-3.4,18.5-4.1c11.7-1.2,25-2.6,32.1-12.3c7-9.8,4.3-22.7,1.9-34.1c-1.6-7.3-3.2-14.9-1.8-19.2c1.3-3.9,7.1-9.1,12.2-13.7c8.9-8,19-16.9,19-29.4C891.8,626.7,881.6,617.6,872.7,609.7L872.7,609.7z M727.8,698.9c-33,0-59.7-26.7-59.7-59.7c0-33,26.7-59.7,59.7-59.7c33,0,59.7,26.7,59.7,59.7C787.5,672.2,760.7,698.9,727.8,698.9L727.8,698.9z M783.9,811.8c-3.9,1.3-8,1.9-12.2,1.9c-13.7,0-25.3-6.8-34.6-12.2c-2.6-1.6-6.8-3.9-9.3-5c-2.5,1.1-6.6,3.5-9.3,5c-9.3,5.4-20.9,12.2-34.6,12.2l0,0c-4.2,0-8.3-0.6-12.2-1.9c-11.5-3.8-18.9-11.6-24.2-20.1v188.9c0,3.8,2.2,7.1,5.6,8.6c3.4,1.5,7.4,0.9,10.2-1.7l64.4-59.2l64.4,59.2c1.8,1.6,4.1,2.5,6.4,2.5c1.3,0,2.6-0.3,3.8-0.8c3.4-1.5,5.6-4.9,5.6-8.6V791.6C802.8,800,795.3,808.1,783.9,811.8L783.9,811.8z"/></g>
</svg>