<svg width="417.5943359375px" height="138.8px" xmlns="http://www.w3.org/2000/svg" viewBox="41.20283203125001 5.599999999999994 417.5943359375 138.8" style="background: rgba(0, 0, 0, 0);" preserveAspectRatio="xMidYMid"><defs><filter id="editing-extrusion" x="-100%" y="-100%" width="300%" height="300%"><feFlood result="color1" flood-color="#444"></feFlood><feConvolveMatrix order="8,8" divisor="1" kernelMatrix="1 0 0 0 0 0 0 0 0 1 0 0 0 0 0 0 0 0 1 0 0 0 0 0 0 0 0 1 0 0 0 0 0 0 0 0 1 0 0 0 0 0 0 0 0 1 0 0 0 0 0 0 0 0 1 0 0 0 0 0 0 0 0 1" in="SourceAlpha" result="extrude"></feConvolveMatrix><feComposite in="color1" in2="extrude" result="comp-extrude" operator="in"></feComposite><feOffset dx="4" dy="4" in="comp-extrude" result="offset-extrude"></feOffset><feMerge><feMergeNode in="offset-extrude"></feMergeNode><feMergeNode in="SourceGraphic"></feMergeNode></feMerge></filter></defs><g filter="url(#editing-extrusion)"><g transform="translate(102.7927131652832, 98.19000244140625)"><path d="M3.59-1.91L5.47-6.53L5.47-6.53Q6.75-6.03 8.17-5.59L8.17-5.59L8.17-5.59Q9.59-5.16 11.08-4.84L11.08-4.84L11.08-4.84Q12.56-4.53 14.06-4.34L14.06-4.34L14.06-4.34Q15.56-4.16 17-4.16L17-4.16L17-4.16Q19.47-4.16 21.47-4.72L21.47-4.72L21.47-4.72Q23.47-5.28 24.91-6.36L24.91-6.36L24.91-6.36Q26.34-7.44 27.13-9.02L27.13-9.02L27.13-9.02Q27.91-10.59 27.91-12.63L27.91-12.63L27.91-12.63Q27.91-14.66 27.17-15.95L27.17-15.95L27.17-15.95Q26.44-17.25 25.05-18.13L25.05-18.13L25.05-18.13Q23.66-19 21.63-19.61L21.63-19.61L21.63-19.61Q19.59-20.22 17-20.88L17-20.88L17-20.88Q14.13-21.63 11.70-22.55L11.70-22.55L11.70-22.55Q9.28-23.47 7.52-24.94L7.52-24.94L7.52-24.94Q5.75-26.41 4.75-28.58L4.75-28.58L4.75-28.58Q3.75-30.75 3.75-34L3.75-34L3.75-34Q3.75-36.66 4.81-38.81L4.81-38.81L4.81-38.81Q5.88-40.97 7.81-42.48L7.81-42.48L7.81-42.48Q9.75-44 12.47-44.81L12.47-44.81L12.47-44.81Q15.19-45.63 18.47-45.63L18.47-45.63L18.47-45.63Q20.06-45.63 21.72-45.42L21.72-45.42L21.72-45.42Q23.38-45.22 25-44.88L25-44.88L25-44.88Q26.63-44.53 28.19-44.03L28.19-44.03L28.19-44.03Q29.75-43.53 31.13-42.94L31.13-42.94L29.25-38.31L29.25-38.31Q28.13-38.75 26.95-39.19L26.95-39.19L26.95-39.19Q25.78-39.63 24.47-39.97L24.47-39.97L24.47-39.97Q23.16-40.31 21.67-40.52L21.67-40.52L21.67-40.52Q20.19-40.72 18.47-40.72L18.47-40.72L18.47-40.72Q16.75-40.72 15.19-40.34L15.19-40.34L15.19-40.34Q13.63-39.97 12.42-39.17L12.42-39.17L12.42-39.17Q11.22-38.38 10.50-37.09L10.50-37.09L10.50-37.09Q9.78-35.81 9.78-34L9.78-34L9.78-34Q9.78-31.97 10.52-30.67L10.52-30.67L10.52-30.67Q11.25-29.38 12.64-28.50L12.64-28.50L12.64-28.50Q14.03-27.63 16.06-27.02L16.06-27.02L16.06-27.02Q18.09-26.41 20.69-25.75L20.69-25.75L20.69-25.75Q23.56-25 25.98-24.08L25.98-24.08L25.98-24.08Q28.41-23.16 30.17-21.69L30.17-21.69L30.17-21.69Q31.94-20.22 32.94-18.03L32.94-18.03L32.94-18.03Q33.94-15.84 33.94-12.63L33.94-12.63L33.94-12.63Q33.94-9.22 32.67-6.70L32.67-6.70L32.67-6.70Q31.41-4.19 29.14-2.53L29.14-2.53L29.14-2.53Q26.88-0.88 23.77-0.06L23.77-0.06L23.77-0.06Q20.66 0.75 17 0.75L17 0.75L17 0.75Q10.09 0.75 3.59-1.91L3.59-1.91ZM40.97-1.91L42.84-6.53L42.84-6.53Q44.13-6.03 45.55-5.59L45.55-5.59L45.55-5.59Q46.97-5.16 48.45-4.84L48.45-4.84L48.45-4.84Q49.94-4.53 51.44-4.34L51.44-4.34L51.44-4.34Q52.94-4.16 54.38-4.16L54.38-4.16L54.38-4.16Q56.84-4.16 58.84-4.72L58.84-4.72L58.84-4.72Q60.84-5.28 62.28-6.36L62.28-6.36L62.28-6.36Q63.72-7.44 64.50-9.02L64.50-9.02L64.50-9.02Q65.28-10.59 65.28-12.63L65.28-12.63L65.28-12.63Q65.28-14.66 64.55-15.95L64.55-15.95L64.55-15.95Q63.81-17.25 62.42-18.13L62.42-18.13L62.42-18.13Q61.03-19 59-19.61L59-19.61L59-19.61Q56.97-20.22 54.38-20.88L54.38-20.88L54.38-20.88Q51.50-21.63 49.08-22.55L49.08-22.55L49.08-22.55Q46.66-23.47 44.89-24.94L44.89-24.94L44.89-24.94Q43.13-26.41 42.13-28.58L42.13-28.58L42.13-28.58Q41.13-30.75 41.13-34L41.13-34L41.13-34Q41.13-36.66 42.19-38.81L42.19-38.81L42.19-38.81Q43.25-40.97 45.19-42.48L45.19-42.48L45.19-42.48Q47.13-44 49.84-44.81L49.84-44.81L49.84-44.81Q52.56-45.63 55.84-45.63L55.84-45.63L55.84-45.63Q57.44-45.63 59.09-45.42L59.09-45.42L59.09-45.42Q60.75-45.22 62.38-44.88L62.38-44.88L62.38-44.88Q64-44.53 65.56-44.03L65.56-44.03L65.56-44.03Q67.13-43.53 68.50-42.94L68.50-42.94L66.63-38.31L66.63-38.31Q65.50-38.75 64.33-39.19L64.33-39.19L64.33-39.19Q63.16-39.63 61.84-39.97L61.84-39.97L61.84-39.97Q60.53-40.31 59.05-40.52L59.05-40.52L59.05-40.52Q57.56-40.72 55.84-40.72L55.84-40.72L55.84-40.72Q54.13-40.72 52.56-40.34L52.56-40.34L52.56-40.34Q51-39.97 49.80-39.17L49.80-39.17L49.80-39.17Q48.59-38.38 47.88-37.09L47.88-37.09L47.88-37.09Q47.16-35.81 47.16-34L47.16-34L47.16-34Q47.16-31.97 47.89-30.67L47.89-30.67L47.89-30.67Q48.63-29.38 50.02-28.50L50.02-28.50L50.02-28.50Q51.41-27.63 53.44-27.02L53.44-27.02L53.44-27.02Q55.47-26.41 58.06-25.75L58.06-25.75L58.06-25.75Q60.94-25 63.36-24.08L63.36-24.08L63.36-24.08Q65.78-23.16 67.55-21.69L67.55-21.69L67.55-21.69Q69.31-20.22 70.31-18.03L70.31-18.03L70.31-18.03Q71.31-15.84 71.31-12.63L71.31-12.63L71.31-12.63Q71.31-9.22 70.05-6.70L70.05-6.70L70.05-6.70Q68.78-4.19 66.52-2.53L66.52-2.53L66.52-2.53Q64.25-0.88 61.14-0.06L61.14-0.06L61.14-0.06Q58.03 0.75 54.38 0.75L54.38 0.75L54.38 0.75Q47.47 0.75 40.97-1.91L40.97-1.91ZM80.31-44.94L94.47-44.94L94.47-44.94Q97.66-44.94 100.45-44.45L100.45-44.45L100.45-44.45Q103.25-43.97 105.34-42.75L105.34-42.75L105.34-42.75Q107.44-41.53 108.66-39.44L108.66-39.44L108.66-39.44Q109.88-37.34 109.88-34.09L109.88-34.09L109.88-34.09Q109.88-32.16 109.44-30.66L109.44-30.66L109.44-30.66Q109-29.16 108.20-28L108.20-28L108.20-28Q107.41-26.84 106.25-26.02L106.25-26.02L106.25-26.02Q105.09-25.19 103.69-24.63L103.69-24.63L103.69-24.56L103.69-24.56Q105.41-24.13 106.98-23.22L106.98-23.22L106.98-23.22Q108.56-22.31 109.75-20.91L109.75-20.91L109.75-20.91Q110.94-19.50 111.64-17.58L111.64-17.58L111.64-17.58Q112.34-15.66 112.34-13.22L112.34-13.22L112.34-13.22Q112.34-9.69 111.09-7.19L111.09-7.19L111.09-7.19Q109.84-4.69 107.64-3.09L107.64-3.09L107.64-3.09Q105.44-1.50 102.45-0.75L102.45-0.75L102.45-0.75Q99.47 0 96 0L96 0L80.31 0L80.31-44.94ZM86.19-26.47L94.38-26.47L94.38-26.47Q96.63-26.47 98.41-26.84L98.41-26.84L98.41-26.84Q100.19-27.22 101.42-28.11L101.42-28.11L101.42-28.11Q102.66-29 103.33-30.48L103.33-30.48L103.33-30.48Q104-31.97 104-34.16L104-34.16L104-34.16Q104-36.03 103.22-37.25L103.22-37.25L103.22-37.25Q102.44-38.47 101.09-39.16L101.09-39.16L101.09-39.16Q99.75-39.84 98-40.11L98-40.11L98-40.11Q96.25-40.38 94.38-40.38L94.38-40.38L86.19-40.38L86.19-26.47ZM86.19-4.56L96-4.56L96-4.56Q98.19-4.56 100.11-5.13L100.11-5.13L100.11-5.13Q102.03-5.69 103.44-6.78L103.44-6.78L103.44-6.78Q104.84-7.88 105.66-9.50L105.66-9.50L105.66-9.50Q106.47-11.13 106.47-13.25L106.47-13.25L106.47-13.25Q106.47-15.38 105.66-16.98L105.66-16.98L105.66-16.98Q104.84-18.59 103.44-19.69L103.44-19.69L103.44-19.69Q102.03-20.78 100.11-21.34L100.11-21.34L100.11-21.34Q98.19-21.91 96-21.91L96-21.91L86.19-21.91L86.19-4.56ZM148.59 0L139.09 0L139.09-44.94L148.59-44.94L148.59-44.94Q152.44-44.94 155.73-44.55L155.73-44.55L155.73-44.55Q159.03-44.16 161.78-43.19L161.78-43.19L161.78-43.19Q164.53-42.22 166.61-40.61L166.61-40.61L166.61-40.61Q168.69-39 170.19-36.50L170.19-36.50L170.19-36.50Q171.66-34 172.41-30.56L172.41-30.56L172.41-30.56Q173.16-27.13 173.16-22.47L173.16-22.47L173.16-22.47Q173.16-17.81 172.41-14.38L172.41-14.38L172.41-14.38Q171.66-10.94 170.19-8.44L170.19-8.44L170.19-8.44Q168.69-5.94 166.61-4.33L166.61-4.33L166.61-4.33Q164.53-2.72 161.78-1.75L161.78-1.75L161.78-1.75Q159.03-0.78 155.73-0.39L155.73-0.39L155.73-0.39Q152.44 0 148.59 0L148.59 0ZM144.97-4.81L149.56-4.81L149.56-4.81Q154.34-4.81 157.67-5.77L157.67-5.77L157.67-5.77Q161-6.72 163.13-8.88L163.13-8.88L163.13-8.88Q165.22-11.03 166.17-14.36L166.17-14.36L166.17-14.36Q167.13-17.69 167.13-22.47L167.13-22.47L167.13-22.47Q167.13-27.25 166.17-30.58L166.17-30.58L166.17-30.58Q165.22-33.91 163.13-36.06L163.13-36.06L163.13-36.06Q161-38.22 157.67-39.17L157.67-39.17L157.67-39.17Q154.34-40.13 149.56-40.13L149.56-40.13L144.97-40.13L144.97-4.81ZM182.09 0L182.09-44.94L207.03-44.94L207.03-40.13L187.97-40.13L187.97-27.72L201.47-27.72L201.47-22.91L187.97-22.91L187.97-4.81L207.75-4.81L207.75 0L182.09 0ZM215.34-1.91L217.22-6.53L217.22-6.53Q218.50-6.03 219.92-5.59L219.92-5.59L219.92-5.59Q221.34-5.16 222.83-4.84L222.83-4.84L222.83-4.84Q224.31-4.53 225.81-4.34L225.81-4.34L225.81-4.34Q227.31-4.16 228.75-4.16L228.75-4.16L228.75-4.16Q231.22-4.16 233.22-4.72L233.22-4.72L233.22-4.72Q235.22-5.28 236.66-6.36L236.66-6.36L236.66-6.36Q238.09-7.44 238.88-9.02L238.88-9.02L238.88-9.02Q239.66-10.59 239.66-12.63L239.66-12.63L239.66-12.63Q239.66-14.66 238.92-15.95L238.92-15.95L238.92-15.95Q238.19-17.25 236.80-18.13L236.80-18.13L236.80-18.13Q235.41-19 233.38-19.61L233.38-19.61L233.38-19.61Q231.34-20.22 228.75-20.88L228.75-20.88L228.75-20.88Q225.88-21.63 223.45-22.55L223.45-22.55L223.45-22.55Q221.03-23.47 219.27-24.94L219.27-24.94L219.27-24.94Q217.50-26.41 216.50-28.58L216.50-28.58L216.50-28.58Q215.50-30.75 215.50-34L215.50-34L215.50-34Q215.50-36.66 216.56-38.81L216.56-38.81L216.56-38.81Q217.63-40.97 219.56-42.48L219.56-42.48L219.56-42.48Q221.50-44 224.22-44.81L224.22-44.81L224.22-44.81Q226.94-45.63 230.22-45.63L230.22-45.63L230.22-45.63Q231.81-45.63 233.47-45.42L233.47-45.42L233.47-45.42Q235.13-45.22 236.75-44.88L236.75-44.88L236.75-44.88Q238.38-44.53 239.94-44.03L239.94-44.03L239.94-44.03Q241.50-43.53 242.88-42.94L242.88-42.94L241-38.31L241-38.31Q239.88-38.75 238.70-39.19L238.70-39.19L238.70-39.19Q237.53-39.63 236.22-39.97L236.22-39.97L236.22-39.97Q234.91-40.31 233.42-40.52L233.42-40.52L233.42-40.52Q231.94-40.72 230.22-40.72L230.22-40.72L230.22-40.72Q228.50-40.72 226.94-40.34L226.94-40.34L226.94-40.34Q225.38-39.97 224.17-39.17L224.17-39.17L224.17-39.17Q222.97-38.38 222.25-37.09L222.25-37.09L222.25-37.09Q221.53-35.81 221.53-34L221.53-34L221.53-34Q221.53-31.97 222.27-30.67L222.27-30.67L222.27-30.67Q223-29.38 224.39-28.50L224.39-28.50L224.39-28.50Q225.78-27.63 227.81-27.02L227.81-27.02L227.81-27.02Q229.84-26.41 232.44-25.75L232.44-25.75L232.44-25.75Q235.31-25 237.73-24.08L237.73-24.08L237.73-24.08Q240.16-23.16 241.92-21.69L241.92-21.69L241.92-21.69Q243.69-20.22 244.69-18.03L244.69-18.03L244.69-18.03Q245.69-15.84 245.69-12.63L245.69-12.63L245.69-12.63Q245.69-9.22 244.42-6.70L244.42-6.70L244.42-6.70Q243.16-4.19 240.89-2.53L240.89-2.53L240.89-2.53Q238.63-0.88 235.52-0.06L235.52-0.06L235.52-0.06Q232.41 0.75 228.75 0.75L228.75 0.75L228.75 0.75Q221.84 0.75 215.34-1.91L215.34-1.91ZM291.28 0L285.31 0L279.41-15.28L261.63-15.28L255.72 0L249.75 0L267.56-44.94L273.47-44.94L291.28 0ZM270.50-38.38L263.47-20.09L277.56-20.09L270.50-38.38Z" fill="#ccc"></path></g></g><style>text {
  font-size: 64px;
  font-family: Arial Black;
  dominant-baseline: central;
  text-anchor: middle;
}</style></svg>